<mxfile host="app.diagrams.net" modified="2023-08-04T12:13:37.358Z" agent="Mozilla/5.0 (Macintosh; Intel Mac OS X 10_15_7) AppleWebKit/537.36 (KHTML, like Gecko) Chrome/115.0.0.0 Safari/537.36" version="21.6.6" etag="b6H0NBfhnsHnc5NemiZT" type="github">
  <diagram name="Page-1" id="No4a3bBIYOffEdHhn_Tg">
    <mxGraphModel>
      <root>
        <mxCell id="0" />
        <mxCell id="1" parent="0" />
      </root>
    </mxGraphModel>
  </diagram>
</mxfile>
